<svg width="1616" height="506" viewBox="0 0 1616 506" xmlns="http://www.w3.org/2000/svg"><title>react-logo</title><g fill="none" fill-rule="evenodd"><g transform="translate(12 17)"><circle fill="#00D8FF" cx="269.529" cy="237.628" r="50.167"/><path d="M269.529 135.628c67.356 0 129.928 9.665 177.107 25.907 56.844 19.569 91.794 49.233 91.794 76.093 0 27.991-37.041 59.503-98.083 79.728-46.151 15.291-106.879 23.272-170.818 23.272-65.554 0-127.63-7.492-174.29-23.441C36.193 297.005.628 265.084.628 237.628c0-26.642 33.37-56.076 89.415-75.616 47.355-16.509 111.472-26.384 179.486-26.384z" stroke="#00D8FF" stroke-width="24"/><path d="M180.736 186.922c33.649-58.348 73.281-107.724 110.92-140.48 45.35-39.466 88.507-54.923 111.775-41.505 24.248 13.983 33.042 61.814 20.067 124.796-9.81 47.618-33.234 104.212-65.176 159.601-32.749 56.788-70.25 106.819-107.377 139.272-46.981 41.068-92.4 55.929-116.185 42.213-23.079-13.31-31.906-56.921-20.834-115.233 9.355-49.27 32.832-109.745 66.81-168.664z" stroke="#00D8FF" stroke-width="24"/><path d="M180.821 289.482c-33.746-58.292-56.731-117.287-66.312-166.255-11.544-58.999-3.382-104.109 19.864-117.566 24.224-14.024 70.055 2.244 118.14 44.94 36.356 32.28 73.688 80.837 105.723 136.173 32.844 56.733 57.461 114.209 67.036 162.582 12.117 61.213 2.309 107.984-21.453 121.74-23.057 13.348-65.249-.784-110.239-39.499-38.013-32.711-78.682-83.253-112.759-142.115z" stroke="#00D8FF" stroke-width="24"/></g><path d="M895.56 350l-68.4-103.36c34.58-3.04 65.74-28.12 65.74-73.72 0-46.74-33.06-76.38-79.42-76.38H711.64V350h31.54V249.3h50.54l64.6 100.7h37.24zm-85.88-128.44h-66.5v-96.9h66.5c30.02 0 50.54 19.76 50.54 48.26 0 28.5-20.52 48.64-50.54 48.64zm203.3 133c30.02 0 54.72-9.88 72.96-28.12l-13.68-18.62c-14.44 14.82-35.72 23.18-56.62 23.18-39.52 0-63.84-28.88-66.12-63.46h148.58v-7.22c0-55.1-32.68-98.42-88.16-98.42-52.44 0-90.44 42.94-90.44 96.14 0 57.38 39.14 96.52 93.48 96.52zm57-107.92H949.52c1.52-28.12 20.9-61.18 60.04-61.18 41.8 0 60.04 33.82 60.42 61.18zM1287.34 350V223.84c0-44.46-32.3-61.94-71.06-61.94-30.02 0-53.58 9.88-73.34 30.4l13.3 19.76c16.34-17.48 34.2-25.46 56.24-25.46 26.6 0 46.36 14.06 46.36 38.76v33.06c-14.82-17.1-35.72-25.08-60.8-25.08-31.16 0-64.22 19.38-64.22 60.42 0 39.9 33.06 60.8 64.22 60.8 24.7 0 45.6-8.74 60.8-25.46V350h28.5zm-79.04-15.96c-26.6 0-45.22-16.72-45.22-39.9 0-23.56 18.62-40.28 45.22-40.28 20.14 0 39.52 7.6 50.54 22.8v34.58c-11.02 15.2-30.4 22.8-50.54 22.8zm216.98 20.52c33.44 0 53.2-13.68 67.26-31.92l-19-17.48c-12.16 16.34-27.74 23.94-46.74 23.94-39.14 0-63.46-30.4-63.46-71.06 0-40.66 24.32-70.68 63.46-70.68 19 0 34.58 7.22 46.74 23.94l19-17.48c-14.06-18.24-33.82-31.92-67.26-31.92-54.72 0-91.58 41.8-91.58 96.14 0 54.72 36.86 96.52 91.58 96.52zm153.52 0c16.72 0 26.98-4.94 34.2-11.78l-8.36-21.28c-3.8 4.18-11.4 7.6-19.38 7.6-12.54 0-18.62-9.88-18.62-23.56v-114h37.24v-25.08h-37.24V116.3h-28.5v50.16h-30.4v25.08h30.4v120.08c0 27.36 13.68 42.94 40.66 42.94z" fill="#00D8FF"/></g></svg>